# xmcd
#
# Track frame offsets:
#	150
#	16931
#	47460
#	60654
#	93527
#	121693
#	148398
#	174262
#	219715
#	242762
#	280161
#
# Disc length: 4010 seconds
#
# Revision: 0
# Processed by: cddbd v1.5.2PL0 Copyright (c) Steve Scherf et al.
# Submitted via: dBpowerAMP V4.0
#
DISCID=980fa80b
DTITLE=Joe Bonamassa - Live from the Royal Albert Hall
DYEAR=2009
DGENRE=Blues
TTITLE0=Django
TTITLE1=The Ballad Of John Henry
TTITLE2=So It's Like That
TTITLE3=Last Kiss
TTITLE4=So Many Roads
TTITLE5=Stop!
TTITLE6=Further On Up The Road
TTITLE7=Woke Up Dreaming
TTITLE8=High Water Everywhere
TTITLE9=Sloe Gin
TTITLE10=Lonesome Road Blues
EXTD=
EXTT0=
EXTT1=
EXTT2=
EXTT3=
EXTT4=
EXTT5=
EXTT6=
EXTT7=
EXTT8=
EXTT9=
EXTT10=
PLAYORDER=
